<svg version="1.0" xmlns="http://www.w3.org/2000/svg" viewBox="0 0 51 60"><path d="M277 486.5V502h57.3c63.6 0 65.6.2 78.3 6.5 13.2 6.5 24.9 21.4 28.9 37 1.9 7.6 1.9 22.4 0 30-5 19.5-19.4 34.5-39.5 41.1-5 1.6-11.2 1.8-65.2 2.2l-59.8.4V758h32V650l38.6.2 38.7.3 30.2 53.5 30.2 53.5 18.1.3c10 .1 18.2 0 18.2-.3s-14.4-26-32.1-57.1c-17.6-31.1-31.9-56.7-31.7-56.8 10-4.5 19-9.9 24.4-14.4 15-12.6 25.2-29.1 30.1-48.8 2.7-11 2.2-32.3-1-44.5-6.8-25.9-23.9-46.3-48.2-57.5-14.9-6.9-13.2-6.7-83.7-7.1l-63.8-.4v15.6zM578.1 562.3c-19 50.1-34.8 91.4-35.1 91.7-.6.5-37.8 98.5-38.7 102-.5 2-.1 2 16.7 1.8l17.3-.3 31-83c17-45.7 31.3-83.2 31.6-83.5.4-.3 6.2-15.5 13.1-33.8 6.8-18.3 12.7-33.5 13-33.7.4-.2 20.2 52.3 44.1 116.8l43.5 117.2 17.2.3c11.9.2 17.2-.1 17.2-.8 0-.6-9-25.1-20.1-54.3-24.7-65.4-66.1-174.9-78.3-207.2l-9.1-24-14.5-.2-14.5-.3-34.4 91.3zM786 486.4v15.5l52.3.4c49.5.3 52.7.5 61.7 2.5 49.3 11.5 80.9 48 86.1 99.5 2.2 22.6-3 49.4-13.3 67.6-15.9 28.1-42.7 46.4-76.8 52.6-7.2 1.3-17.9 1.8-43.7 2.2l-34.3.6V622h-32v136.1l56.3-.4c52.7-.4 56.8-.5 65.6-2.5 30.6-6.9 50.4-17.4 70.7-37.6 21.1-21.1 33.3-44.4 38.9-74.6 5.2-28 1.5-62.9-9.4-88.3-17.2-40.3-46.4-65.9-89-78.3-16.7-4.8-25.3-5.4-81.3-5.4H786v15.4z"/></svg>